<?xml version="1.0" encoding="utf-8"?>
<!-- Generator: Adobe Illustrator 18.0.0, SVG Export Plug-In . SVG Version: 6.00 Build 0)  -->
<!DOCTYPE svg PUBLIC "-//W3C//DTD SVG 1.1//EN" "http://www.w3.org/Graphics/SVG/1.1/DTD/svg11.dtd" [
	<!ENTITY st0 "fill:#77B55A;">
]>
<svg version="1.1" id="圖層_1" xmlns="http://www.w3.org/2000/svg" xmlns:xlink="http://www.w3.org/1999/xlink" x="0px" y="0px"
	 viewBox="0 0 331.9 94.3" style="enable-background:new 0 0 331.9 94.3;" xml:space="preserve">
<g>
	<path style="&st0;" d="M74.5,48.6c-0.7-6-4.7-9.2-12-9.2c-6.4,0-10.5,2.7-10.5,6.6c0,3.3,2.5,5.4,8.6,6.7l7.8,1.7
		c5.7,1.2,8.6,2.4,10.9,4.4c2.5,2.1,3.9,5.2,3.9,8.7c0,8.6-7.3,14-19,14c-12.5,0-19.9-5.9-21-16.9h7.1c0.7,7,5.8,11.2,14,11.2
		c6.9,0,11.8-3.2,11.8-7.8c0-3.4-2.6-5.7-7.6-6.8l-10.8-2.5c-8.8-2-12.7-5.7-12.7-11.8c0-8,7-13.2,18-13.2c11,0,16.9,5,18.4,15H74.5
		z"/>
	<path style="&st0;" d="M99.2,80.6h-7v-46h7V80.6z"/>
	<path style="&st0;" d="M127.2,80.6h-6v-40h-15v-6h36v6h-15V80.6z"/>
	<path style="&st0;" d="M181,49.1c-1.4-6-6.3-9.6-12.9-9.6c-9.2,0-15.3,7.1-15.3,17.8c0,11,6,18.2,15,18.2c7.5,0,12.7-4.9,13.8-12.9
		h6.9c-0.6,5-1.7,7.6-4.1,10.8c-4,5.2-9.5,7.9-16.7,7.9c-7.1,0-12.8-2.5-16.8-7.7c-3.5-4.4-5.3-9.9-5.3-16.2
		c0-13.9,9.3-23.6,22.5-23.6c10.2,0,17.5,5.5,19.6,14.7L181,49.1z"/>
	<path style="&st0;" d="M281.7,80.6L262,51.7c-2.4-3.6-3.9-5.9-5-7.9c0.1,2,0.2,6.3,0.2,8.5v28.2h-6v-46h6.6l18.9,27.8
		c1.8,2.6,4.3,6.7,5.7,9.5c-0.1-2.5-0.2-5.3-0.2-8.5V34.6h6v46H281.7z"/>
	<g>
		<path style="&st0;" d="M227.4,14.5c4.1-3.1,8.9-2,8.9-2s-0.8,5.8-4.9,8.9c-4.1,3.1-9.8,2.4-9.8,2.4s1.3-1.9,2.5-4.4
			C224.9,17.9,225.9,15.6,227.4,14.5z"/>
		<path style="&st0;" d="M217.7,19.2c-1.9-1.4-4.1-0.9-4.1-0.9s0.4,2.7,2.3,4.1c1.9,1.4,4.6,1.1,4.6,1.1s-0.6-0.9-1.2-2
			C218.9,20.8,218.4,19.7,217.7,19.2z"/>
		<path style="&st0;" d="M218.2,32.9c0.6,0,1.1,0,1.7,0.1c-0.5-2.9-0.4-6,1.1-8.7c-2.7,2.1-3.9,5.4-4.6,8.7
			C216.9,32.9,217.6,32.9,218.2,32.9z"/>
		<path style="&st0;" d="M218.2,33.9c-13.3,0-24.1,10.8-24.1,24.1c0,13.3,10.8,24.1,24.1,24.1c13.3,0,24.1-10.8,24.1-24.1
			C242.2,44.6,231.4,33.9,218.2,33.9z M228,67.8l-9.8-6.8l-9.8,6.8l6.8-9.8l-6.8-9.8l9.8,6.8l9.8-6.8l-6.8,9.8L228,67.8z"/>
	</g>
</g>
</svg>
